<svg id="Layer_1" data-name="Layer 1" xmlns="http://www.w3.org/2000/svg" viewBox="0 0 1600 1600"><defs><style>.cls-1{fill:#fff;}.cls-2{fill:#7b7b8e;}.cls-3{fill:#2f2f38;}</style></defs><rect class="cls-1" width="1600" height="1600"/><rect class="cls-2" x="617.42" y="472.24" width="70.68" height="70.68"/><rect class="cls-2" x="689.22" y="398.49" width="50.35" height="50.35"/><rect class="cls-2" x="743.38" y="465.61" width="37.1" height="37.1"/><polygon class="cls-3" points="936.9 607.42 958.21 619.23 938.33 420.76 872.02 420.76 835.88 682.85 778.22 725.91 762.67 570.67 698.33 570.67 665.3 810.22 631.68 835.33 615.19 670.64 554.96 670.64 520.84 918.09 461 962.77 514.68 962.77 644.44 962.77 936.9 962.77 936.9 742.39 936.9 607.42"/><polygon class="cls-2" points="778.22 725.91 762.67 570.67 728.83 570.67 728.83 762.79 778.22 725.91"/><polygon class="cls-2" points="631.68 835.33 615.19 670.64 583.51 670.64 583.51 871.29 631.68 835.33"/><polygon class="cls-2" points="936.9 607.42 1139 719.47 1139 962.77 936.9 962.77 936.9 607.42"/><polygon class="cls-2" points="958.21 619.23 938.33 420.76 903.45 420.76 903.45 632.4 936.9 607.42 958.21 619.23"/><polygon class="cls-2" points="864.61 711.23 710.8 816.7 710.8 851.62 864.61 748.77 864.61 711.23"/><polygon class="cls-2" points="864.61 769.05 710.8 874.53 710.8 909.44 864.61 806.59 864.61 769.05"/><path class="cls-3" d="M503,1026.59q14.61,13.38,14.62,37.21t-14.26,37.72q-14.25,13.89-43.49,13.88H425V1013.22h36.11Q488.39,1013.22,503,1026.59Zm-16.74,60.75q8.4-7.9,8.4-23t-8.4-23.17q-8.41-8.12-25.81-8.11H447.76v62.13h14.47Q477.88,1095.23,486.28,1087.34Z"/><path class="cls-3" d="M566.61,1013.22h22.8V1115.4h-22.8Z"/><path class="cls-3" d="M710.17,1063.36h23v36.26q-15.21,17-42.1,17-22.51,0-37.79-14.91T638,1064q0-22.73,15.57-37.94a51.84,51.84,0,0,1,37.57-15.2,55.56,55.56,0,0,1,38.23,14.47l-11.84,17.11q-6.88-6-12.65-8.26a34,34,0,0,0-12.5-2.27,30,30,0,0,0-21.93,8.84q-8.91,8.85-8.91,23.32t8.55,23.17a27.61,27.61,0,0,0,20.39,8.7q11.85,0,19.74-4.53Z"/><path class="cls-3" d="M782.68,1013.22h22.8V1115.4h-22.8Z"/><path class="cls-3" d="M903.14,1033v82.45H880.33V1033h-29v-19.73h80.7V1033Z"/><path class="cls-3" d="M1043.33,1115.4l-9.5-22.07H991l-9.51,22.07H957.23l44.15-102.18h22.07l44.15,102.18Zm-30.84-71.77-12.87,29.67h25.58Z"/><path class="cls-3" d="M1108.68,1115.4V1013.22h22.8v81.86h43.57v20.32Z"/><path class="cls-3" d="M567.34,1152.82v9.44H545v10.4h21.2v9.43H545V1201H534.28v-48.14Z"/><path class="cls-3" d="M642.53,1201l-4.48-10.4H617.88L613.4,1201H602l20.79-48.14h10.4L654,1201ZM628,1167.15l-6.06,14h12Z"/><path class="cls-3" d="M716.07,1191.45a15.87,15.87,0,0,0,12.94-6.26l6.89,7.09q-8.21,9.23-19.32,9.23t-18.31-7a23.72,23.72,0,0,1-7.2-17.73,24,24,0,0,1,7.33-17.87,24.72,24.72,0,0,1,17.94-7.16,25.42,25.42,0,0,1,19.83,9l-6.68,7.58a15.64,15.64,0,0,0-12.67-6.34,14.76,14.76,0,0,0-10.36,4q-4.31,4-4.3,10.67t4.06,10.78A13.4,13.4,0,0,0,716.07,1191.45Z"/><path class="cls-3" d="M799.17,1162.12V1201H788.43v-38.84H774.8v-9.3h38v9.3Z"/><path class="cls-3" d="M894.26,1194.31a26.21,26.21,0,0,1-35.94,0,25.18,25.18,0,0,1,0-35.46,26.21,26.21,0,0,1,35.94,0,25.18,25.18,0,0,1,0,35.46Zm-3.65-17.7a15.72,15.72,0,0,0-4.13-11,13.63,13.63,0,0,0-20.31,0,16.62,16.62,0,0,0,0,21.93,13.69,13.69,0,0,0,20.31,0A15.58,15.58,0,0,0,890.61,1176.61Z"/><path class="cls-3" d="M984.12,1168.8q0,11.57-9.16,14.94L987.15,1201H973.93l-10.67-15.36h-7.44V1201H945.08v-48.14h18.25q11.22,0,16,3.79T984.12,1168.8Zm-12.94,5.71q2-1.79,2-5.68t-2.06-5.33q-2.07-1.45-7.23-1.45h-8.06v14.25h7.85C967.34,1176.3,969.84,1175.71,971.18,1174.51Z"/><path class="cls-3" d="M1049.05,1201h-10.74v-19l-16.66-29.13h11.63l10.4,17.91,10.4-17.91h11.64L1049.05,1182Z"/></svg>